<svg version="1.1" xmlns="http://www.w3.org/2000/svg" viewBox="0 0 95.72297648515615 154.05788669414875" width="95.72297648515615" height="154.05788669414875">
  <!-- svg-source:excalidraw -->
  
  <defs>
    <style class="style-fonts">
      @font-face {
        font-family: "Virgil";
        src: url("https://file%2B.vscode-resource.vscode-cdn.net/c%3A/Users/Asus/.vscode/extensions/pomdtr.excalidraw-editor-3.7.4/public//dist/excalidraw-assets/Virgil.woff2");
      }
      @font-face {
        font-family: "Cascadia";
        src: url("https://file%2B.vscode-resource.vscode-cdn.net/c%3A/Users/Asus/.vscode/extensions/pomdtr.excalidraw-editor-3.7.4/public//dist/excalidraw-assets/Cascadia.woff2");
      }
      @font-face {
        font-family: "Assistant";
        src: url("https://file%2B.vscode-resource.vscode-cdn.net/c%3A/Users/Asus/.vscode/extensions/pomdtr.excalidraw-editor-3.7.4/public//dist/excalidraw-assets/Assistant-Regular.woff2");
      }
    </style>
    
  </defs>
  <rect x="0" y="0" width="95.72297648515615" height="154.05788669414875" fill="#0000"></rect><g stroke-linecap="round"><g transform="translate(61.43966298975471 67.59583690854726) rotate(0 9.708932144936256 5.248071429695244)"><path d="M1.07 0.08 C1.58 1.44, 1.18 5.27, 2.5 7.48 C3.81 9.69, 6.5 11.96, 8.96 13.35 C11.42 14.74, 15.48 16.24, 17.25 15.81 C19.02 15.38, 19.7 13.1, 19.58 10.79 C19.46 8.48, 18.02 4.79, 16.52 1.93 C15.02 -0.94, 12.54 -5.34, 10.58 -6.41 C8.63 -7.49, 6.57 -5.74, 4.78 -4.5 C2.99 -3.27, 0.77 0.18, -0.17 0.99 M0.17 -0.92 C0.64 0.68, 0.57 6.32, 1.94 8.9 C3.32 11.49, 5.78 13.28, 8.4 14.6 C11.02 15.93, 16.02 17.93, 17.65 16.85 C19.28 15.78, 18.13 10.7, 18.2 8.13 C18.27 5.56, 19.24 3.56, 18.07 1.44 C16.9 -0.69, 13.47 -3.61, 11.18 -4.62 C8.89 -5.63, 5.91 -5.43, 4.34 -4.64 C2.76 -3.85, 2.54 -0.67, 1.73 0.12" stroke="#ffffff" stroke-width="2" fill="none"></path></g></g><mask></mask><g stroke-linecap="round"><g transform="translate(76.21141645292374 64.03379173355444) rotate(0 4.635796429564181 5.335539286856857)"><path d="M0.34 -0.1 C1.55 0.18, 6.19 0.2, 7.7 1.69 C9.21 3.19, 9.77 7.29, 9.4 8.87 C9.04 10.46, 6.14 10.83, 5.5 11.21 M-0.14 -0.63 C0.96 -0.27, 5.82 0.69, 7.36 2.36 C8.91 4.04, 9.41 8.12, 9.12 9.44 C8.84 10.77, 6.35 10.24, 5.65 10.32" stroke="#ffffff" stroke-width="2" fill="none"></path></g></g><mask></mask><g stroke-linecap="round"><g transform="translate(50.28699955917983 49.710346074035954) rotate(0 15.481810717601036 6.735025001442267)"><path d="M0.18 -0.06 C2.39 0.13, 8.46 -0.24, 13.6 1 C18.74 2.23, 28.24 5.2, 31.04 7.36 C33.84 9.52, 30.52 13.01, 30.38 13.95 M-0.39 -0.56 C1.73 -0.28, 8.05 0.48, 13.24 1.67 C18.42 2.86, 27.84 4.67, 30.73 6.57 C33.62 8.46, 30.75 11.97, 30.55 13.04" stroke="#ffffff" stroke-width="2" fill="none"></path></g></g><mask></mask><g stroke-linecap="round"><g transform="translate(66.90793888850845 52.223797699728095) rotate(0 4.110989286594645 4.810732143887321)"><path d="M0.08 -0.03 C1.44 0.41, 7.14 0.96, 8.27 2.62 C9.41 4.28, 7.14 8.82, 6.9 9.93 M-0.3 -0.36 C1.01 0, 6.85 0.55, 8.02 2.17 C9.19 3.8, 6.9 8.18, 6.71 9.41" stroke="#ffffff" stroke-width="2" fill="none"></path></g></g><mask></mask><g stroke-linecap="round"><g transform="translate(29.854766838172566 53.81191462842281) rotate(0 6.909960715765465 -2.36163214336284)"><path d="M0.16 1.17 C0.16 -0.15, -0.14 -4.54, 0.25 -8.04 C0.65 -11.55, 1 -17.38, 2.54 -19.88 C4.08 -22.38, 7.19 -22.3, 9.5 -23.05 C11.82 -23.8, 14.73 -22.13, 16.45 -24.38 C18.17 -26.63, 17.95 -34.83, 19.83 -36.55 C21.71 -38.27, 26.78 -36.47, 27.73 -34.7 C28.69 -32.92, 25.91 -26.23, 25.58 -25.88 C25.26 -25.54, 25.63 -31.45, 25.78 -32.61 C25.93 -33.78, 25.47 -33.04, 26.48 -32.86 C27.48 -32.69, 31.45 -33.63, 31.84 -31.56 C32.22 -29.49, 28.77 -23.05, 28.77 -20.43 C28.76 -17.81, 31.1 -17.1, 31.8 -15.83 C32.49 -14.56, 32.98 -13.94, 32.93 -12.8 C32.89 -11.66, 32.7 -9.87, 31.5 -9.01 C30.31 -8.15, 27.49 -8.09, 25.74 -7.65 C24 -7.21, 21.99 -6.8, 21.01 -6.36 C20.04 -5.92, 20.41 -6.17, 19.9 -5.01 C19.39 -3.85, 18.89 -1.2, 17.93 0.6 C16.97 2.4, 17.05 3.07, 14.16 5.76 C11.28 8.45, 4.33 12.92, 0.62 16.73 C-3.09 20.54, -5.65 25.96, -8.11 28.62 C-10.57 31.27, -12.83 32.21, -14.14 32.66 C-15.45 33.12, -15.04 32.67, -15.99 31.34 C-16.94 30.01, -19.55 27.92, -19.82 24.67 C-20.09 21.43, -18.58 15.37, -17.62 11.86 C-16.67 8.34, -15.8 5.59, -14.09 3.57 C-12.37 1.54, -9.44 0.15, -7.32 -0.3 C-5.19 -0.76, -3.7 -0.74, -1.33 0.84 C1.04 2.43, 5.36 7.81, 6.9 9.19 M-1.21 0.74 C-1.37 -0.89, -1.05 -6.31, -0.56 -9.61 C-0.07 -12.92, 0.52 -17.07, 1.73 -19.09 C2.93 -21.11, 4.48 -20.4, 6.67 -21.74 C8.87 -23.08, 12.54 -24.52, 14.89 -27.13 C17.25 -29.74, 19.1 -35.98, 20.81 -37.4 C22.52 -38.81, 24.41 -37.4, 25.13 -35.61 C25.85 -33.83, 24.73 -26.94, 25.13 -26.68 C25.53 -26.42, 27.2 -32.95, 27.53 -34.03 C27.86 -35.12, 26.26 -33.81, 27.09 -33.21 C27.92 -32.61, 32.43 -32.52, 32.52 -30.43 C32.62 -28.33, 27.76 -22.91, 27.67 -20.65 C27.58 -18.39, 31.21 -18.11, 32 -16.88 C32.8 -15.66, 32.39 -14.57, 32.44 -13.28 C32.49 -12, 33.35 -10.3, 32.3 -9.15 C31.25 -8, 28.19 -6.99, 26.15 -6.38 C24.11 -5.76, 21.21 -5.8, 20.04 -5.46 C18.88 -5.12, 19.2 -5.37, 19.15 -4.34 C19.09 -3.31, 20.37 -0.67, 19.7 0.71 C19.03 2.1, 18.5 0.99, 15.1 3.97 C11.7 6.96, 3.12 14.72, -0.69 18.61 C-4.51 22.51, -6.03 25.08, -7.77 27.32 C-9.5 29.56, -9.52 31.44, -11.13 32.04 C-12.73 32.64, -16.14 32.06, -17.41 30.93 C-18.68 29.79, -18.9 28.4, -18.75 25.24 C-18.6 22.08, -16.97 15.61, -16.53 11.96 C-16.1 8.31, -17.92 5.67, -16.15 3.35 C-14.38 1.02, -8.32 -1.8, -5.91 -1.99 C-3.49 -2.18, -3.97 0.52, -1.65 2.21 C0.66 3.9, 6.45 7.27, 7.97 8.16" stroke="#ffffff" stroke-width="2" fill="none"></path></g></g><mask></mask><g stroke-linecap="round"><g transform="translate(21.31330004544094 52.27509952758243) rotate(0 11.283353573844863 -20.38001071864997)"><path d="M0.25 1.05 C-0.02 -1.35, -1.66 -8.9, -1.49 -13.24 C-1.31 -17.57, 0.36 -20.55, 1.28 -24.97 C2.2 -29.39, 2.17 -37.52, 4.03 -39.77 C5.9 -42.02, 10.83 -40.11, 12.48 -38.47 C14.13 -36.84, 11.96 -30.88, 13.91 -29.97 C15.86 -29.07, 22.61 -33.96, 24.18 -33.06 C25.75 -32.16, 23.42 -23.87, 23.33 -24.56 C23.25 -25.26, 25 -34.79, 23.68 -37.24 C22.35 -39.69, 16.76 -38.97, 15.39 -39.25 C14.02 -39.54, 15.56 -38.88, 15.47 -38.97 M-1.07 0.56 C-1.53 -1.22, -2.84 -7.61, -2.48 -12.22 C-2.12 -16.83, -0.01 -22.18, 1.1 -27.11 C2.21 -32.04, 2 -40.01, 4.19 -41.81 C6.38 -43.61, 12.92 -39.76, 14.24 -37.89 C15.56 -36.02, 10.83 -31.7, 12.08 -30.58 C13.33 -29.47, 20.07 -32.14, 21.74 -31.2 C23.4 -30.26, 21.44 -23.73, 22.07 -24.94 C22.7 -26.16, 27.05 -36.08, 25.51 -38.52 C23.98 -40.95, 14.43 -39.68, 12.87 -39.56 C11.3 -39.44, 16.02 -37.64, 16.11 -37.79" stroke="#ffffff" stroke-width="2" fill="none"></path></g></g><mask></mask><g stroke-linecap="round"><g transform="translate(64.59068880863259 77.55380009136235) rotate(0 0.8746785716159309 24.491000005244615)"><path d="M-0.04 -0.45 C0.17 1.25, 1.39 7.32, 1.38 10.68 C1.38 14.03, 0.51 16.75, -0.08 19.7 C-0.66 22.64, -1.88 25.66, -2.12 28.33 C-2.37 31, -1.85 33.53, -1.56 35.71 C-1.27 37.89, -0.13 39.21, -0.37 41.41 C-0.62 43.62, -2.82 48.84, -3.01 48.95 C-3.2 49.06, -1.85 44.21, -1.53 42.08 C-1.21 39.95, -1.47 36.18, -1.08 36.17 C-0.69 36.15, -0.13 40.55, 0.8 41.99 C1.74 43.42, 3.87 44.31, 4.53 44.76 C5.18 45.21, 4.66 44.61, 4.73 44.7 M-0.72 0.5 C-0.55 2.27, 1.17 6.74, 1.21 9.8 C1.25 12.86, 0.11 15.68, -0.46 18.86 C-1.03 22.05, -1.94 26.05, -2.2 28.92 C-2.47 31.79, -2.22 33.83, -2.04 36.08 C-1.87 38.33, -1.01 40.36, -1.14 42.4 C-1.27 44.44, -2.67 48.39, -2.82 48.32 C-2.98 48.25, -2.26 44.09, -2.07 41.97 C-1.88 39.85, -2.24 35.62, -1.68 35.6 C-1.12 35.59, 0.23 40.29, 1.29 41.87 C2.35 43.46, 4.18 44.69, 4.66 45.1 C5.15 45.52, 4.08 44.38, 4.18 44.38" stroke="#ffffff" stroke-width="2" fill="none"></path></g></g><mask></mask><g stroke-linecap="round"><g transform="translate(66.31973227608916 91.18679982410009) rotate(0 7.434767858735 6.035282144149562)"><path d="M0.51 0.18 C1.64 0.86, 4.41 1.59, 6.75 3.6 C9.08 5.61, 13.08 10.76, 14.5 12.24 M0.1 -0.2 C1.16 0.37, 3.69 0.96, 6.28 2.87 C8.86 4.78, 14.08 9.82, 15.62 11.26" stroke="#ffffff" stroke-width="2" fill="none"></path></g></g><mask></mask><g stroke-linecap="round"><g transform="translate(74.63254758783609 98.31315406545224) rotate(0 0.17493571432322597 5.423007144018442)"><path d="M-0.08 0.45 C-0.31 1.06, -0.88 2.57, -0.9 3.84 C-0.91 5.11, -0.54 6.97, -0.16 8.07 C0.22 9.17, 1.24 9.99, 1.37 10.45 M-0.78 0.21 C-0.88 0.63, 0.07 1.8, 0.14 2.96 C0.22 4.12, -0.31 5.9, -0.32 7.2 C-0.33 8.5, -0.23 10.12, 0.08 10.75" stroke="#ffffff" stroke-width="2" fill="none"></path></g></g><mask></mask><g stroke-linecap="round"><g transform="translate(62.39863916629457 82.85508250292361) rotate(0 -8.309446430350818 9.79640000209784)"><path d="M-0.82 0.36 C-1.59 0.71, -3.75 1.81, -4.8 3.09 C-5.86 4.37, -5.76 6.13, -7.13 8.05 C-8.51 9.97, -11.42 12.66, -13.05 14.62 C-14.68 16.58, -16.43 18.92, -16.91 19.79 M0.96 -0.49 C0.11 -0.56, -3.95 -0.17, -5.33 1.4 C-6.71 2.96, -6.04 6.53, -7.32 8.91 C-8.61 11.3, -11.79 13.79, -13.05 15.69 C-14.3 17.58, -14.08 19.74, -14.87 20.29" stroke="#ffffff" stroke-width="2" fill="none"></path></g></g><mask></mask><g stroke-linecap="round"><g transform="translate(54.72807676984695 92.49182745377635) rotate(0 -3.7611178579483067 8.484382144674015)"><path d="M0.36 0.37 C0.16 1.71, -0.25 5.41, -1.6 8.17 C-2.95 10.93, -6.72 15.45, -7.73 16.93 M-0.11 0.09 C-0.31 1.47, -0.43 5.76, -1.77 8.67 C-3.12 11.57, -7.22 16.03, -8.19 17.52" stroke="#ffffff" stroke-width="2" fill="none"></path></g></g><mask></mask><g stroke-linecap="round"><g transform="translate(77.87575608036383 85.09264091419601) rotate(0 -27.55237500590016 28.33958572035445)"><path d="M1.09 -0.87 C1.61 0.27, 3.18 3.63, 3.92 7.62 C4.65 11.62, 6.11 16.64, 5.48 23.12 C4.86 29.59, 2.44 40.72, 0.17 46.46 C-2.1 52.21, -5.43 55.67, -8.15 57.59 C-10.86 59.51, -11.64 59.2, -16.14 57.99 C-20.63 56.79, -28.86 54.14, -35.12 50.35 C-41.37 46.56, -49.2 40.2, -53.69 35.25 C-58.18 30.31, -61.02 25, -62.07 20.69 C-63.12 16.38, -60.82 13.03, -59.98 9.39 C-59.15 5.74, -57.23 0.74, -57.07 -1.17 M0.2 1.29 C0.46 2.55, 2 5.25, 2.73 9.12 C3.45 13, 4.89 18.1, 4.57 24.54 C4.24 30.97, 3.1 42.11, 0.79 47.71 C-1.52 53.32, -6.71 56.68, -9.3 58.18 C-11.89 59.69, -10.59 57.69, -14.75 56.72 C-18.91 55.76, -27.68 55.94, -34.26 52.37 C-40.85 48.81, -49.84 40.83, -54.25 35.32 C-58.66 29.82, -59.93 23.7, -60.71 19.33 C-61.49 14.95, -59.07 12.89, -58.93 9.08 C-58.79 5.27, -60.15 -1.59, -59.88 -3.53" stroke="#ffffff" stroke-width="2" fill="none"></path></g></g><mask></mask><g stroke-linecap="round"><g transform="translate(32.254048999168674 77.20110617238521) rotate(0 -4.723264286725737 14.16979286017721)"><path d="M-0.21 -0.03 C-1.34 1.56, -4.77 5.87, -6.26 9.19 C-7.74 12.51, -8.84 16.67, -9.13 19.9 C-9.41 23.12, -8.09 27.14, -7.95 28.52 M0.68 -0.53 C-0.57 0.93, -5.09 4.75, -6.76 8.27 C-8.42 11.78, -9.15 17.09, -9.31 20.56 C-9.47 24.04, -7.76 27.83, -7.69 29.11" stroke="#ffffff" stroke-width="2" fill="none"></path></g></g><mask></mask><g stroke-linecap="round"><g transform="translate(40.56202013775777 34.3921147929496) rotate(0 -2.6240357148476505 7.347300001573387)"><path d="M-0.13 0.09 C-0.72 1.11, -2.9 3.61, -3.7 6.08 C-4.51 8.54, -4.71 13.47, -4.97 14.87 M0.8 -0.34 C0.19 0.51, -2.97 2.8, -3.97 5.18 C-4.97 7.55, -4.98 12.28, -5.18 13.9" stroke="#ffffff" stroke-width="2" fill="none"></path></g></g><mask></mask></svg>